<?xml version="1.0" encoding="UTF-8"?>
<svg xmlns="http://www.w3.org/2000/svg" version="1.1" viewBox="0 0 100 100">
  <!-- Generator: Adobe Illustrator 29.2.0, SVG Export Plug-In . SVG Version: 2.1.0 Build 108)  -->
  <defs>
    <style>
      .st0 {
        stroke-width: 3px;
      }

      .st0, .st1 {
        fill: none;
        stroke: #fff;
        stroke-linecap: round;
        stroke-linejoin: round;
      }

      .st1 {
        stroke-width: 2px;
      }

      .st2 {
        display: none;
      }
    </style>
  </defs>
  <g id="UnderChange" class="st2">
    <g>
      <g>
        <g>
          <path class="st1" d="M54.1,69.5h-.2c0,0,0-.2,0-.2,1.3-5.1,4-9.7,7.7-13.4l25.2-25.2,4.8,4.8c.6.6.6,1.6,0,2.2l-24.1,24.1c-3.7,3.7-8.3,6.3-13.4,7.7Z"/>
          <path class="st1" d="M95,32.6l.7-.7c.4-.4.4-1,0-1.3l-2.8-2.8c-.4-.4-1-.4-1.3,0l-.7.7"/>
          <path class="st1" d="M87.3,31.2l-2.5-2.5c-1-1-2.6-1-3.5,0l-8,8"/>
          <line class="st1" x1="62.9" y1="55" x2="65.2" y2="57.3"/>
        </g>
        <path class="st1" d="M66.5,42V14.3H10v63.6c0,4.6,3.7,8.3,8.3,8.3h0c4.6,0,8.3-3.7,8.3-8.3v-2.9h56.5v2.9c0,4.6-3.7,8.3-8.3,8.3"/>
        <line class="st1" x1="18.3" y1="86.3" x2="74.9" y2="86.3"/>
      </g>
      <line class="st1" x1="19.9" y1="27.6" x2="45.9" y2="27.6"/>
      <line class="st1" x1="19.9" y1="38.2" x2="54.3" y2="38.2"/>
      <line class="st1" x1="19.9" y1="49.2" x2="51.2" y2="49.2"/>
    </g>
  </g>
  <g id="Layer_2">
    <g>
      <g>
        <g>
          <path class="st0" d="M34.6,78.7l.7-4.7c.7-4.7,4.7-8.2,9.5-8.2h10.8c4.8,0,8.8,3.5,9.5,8.2l.7,4.7"/>
          <circle class="st0" cx="50.2" cy="59.1" r="6.7"/>
        </g>
        <g>
          <path class="st0" d="M17.5,84.1l1.5,5.6c.4,1.3,1.6,2.2,2.9,2.2h13.2c2.1,0,3.8-1.7,3.8-3.8h0c0-2.1-1.7-3.8-3.8-3.8h-8.6l-2.5-10.8c-.8-3.3-3.7-5.6-7-5.6h-1.2c-3.3,0-6,2.7-6,6v17.9"/>
          <circle class="st0" cx="16.8" cy="61.3" r="6.8"/>
        </g>
        <g>
          <path class="st0" d="M82.8,84.1l-1.5,5.6c-.4,1.3-1.6,2.2-2.9,2.2h-13.2c-2.1,0-3.8-1.7-3.8-3.8h0c0-2.1,1.7-3.8,3.8-3.8h8.6l2.5-10.8c.8-3.3,3.7-5.6,7-5.6h1.2c3.3,0,6,2.7,6,6v17.9"/>
          <circle class="st0" cx="83.6" cy="61.3" r="6.8"/>
        </g>
        <line class="st0" x1="35.2" y1="92" x2="65.9" y2="92"/>
      </g>
      <g>
        <path class="st0" d="M46,16.9h-24.3c-1.7,0-3.1,1.4-3.1,3.1v14.9c0,1.7,1.4,3.1,3.1,3.1h1.3v3.3c0,.9,1,1.3,1.7.8l5-4.1h16.3c1.7,0,3.1-1.4,3.1-3.1v-14.9c0-1.7-1.4-3.1-3.1-3.1Z"/>
        <path class="st0" d="M38.9,11.9v-1c0-1.7,1.4-3.1,3.1-3.1h24.3c1.7,0,3.1,1.4,3.1,3.1v9.1"/>
        <path class="st0" d="M55.5,25.7h20.7c1.7,0,3.1,1.4,3.1,3.1v14.9c0,1.7-1.4,3.1-3.1,3.1h-1.3v3.3c0,.9-1,1.3-1.7.8l-5-4.1h-16.3c-1.7,0-3.1-1.4-3.1-3.1"/>
      </g>
    </g>
  </g>
</svg>