<?xml version="1.0" encoding="UTF-8"?>
<svg xmlns="http://www.w3.org/2000/svg" version="1.1" viewBox="0 0 100 100">
  <!-- Generator: Adobe Illustrator 29.2.0, SVG Export Plug-In . SVG Version: 2.1.0 Build 108)  -->
  <defs>
    <style>
      .st0 {
        stroke-width: 3px;
      }

      .st0, .st1 {
        fill: none;
        stroke: #fff;
        stroke-linecap: round;
        stroke-linejoin: round;
      }

      .st1 {
        stroke-width: 2px;
      }

      .st2 {
        display: none;
      }
    </style>
  </defs>
  <g id="UnderChange" class="st2">
    <g>
      <g>
        <g>
          <path class="st1" d="M54.1,69.5h-.2c0,0,0-.2,0-.2,1.3-5.1,4-9.7,7.7-13.4l25.2-25.2,4.8,4.8c.6.6.6,1.6,0,2.2l-24.1,24.1c-3.7,3.7-8.3,6.3-13.4,7.7Z"/>
          <path class="st1" d="M95,32.6l.7-.7c.4-.4.4-1,0-1.3l-2.8-2.8c-.4-.4-1-.4-1.3,0l-.7.7"/>
          <path class="st1" d="M87.3,31.2l-2.5-2.5c-1-1-2.6-1-3.5,0l-8,8"/>
          <line class="st1" x1="62.9" y1="55" x2="65.2" y2="57.3"/>
        </g>
        <path class="st1" d="M66.5,42V14.3H10v63.6c0,4.6,3.7,8.3,8.3,8.3h0c4.6,0,8.3-3.7,8.3-8.3v-2.9h56.5v2.9c0,4.6-3.7,8.3-8.3,8.3"/>
        <line class="st1" x1="18.3" y1="86.3" x2="74.9" y2="86.3"/>
      </g>
      <line class="st1" x1="19.9" y1="27.6" x2="45.9" y2="27.6"/>
      <line class="st1" x1="19.9" y1="38.2" x2="54.3" y2="38.2"/>
      <line class="st1" x1="19.9" y1="49.2" x2="51.2" y2="49.2"/>
    </g>
  </g>
  <g id="Layer_2" class="st2">
    <g>
      <g>
        <g>
          <path class="st0" d="M34.6,78.7l.7-4.7c.7-4.7,4.7-8.2,9.5-8.2h10.8c4.8,0,8.8,3.5,9.5,8.2l.7,4.7"/>
          <circle class="st0" cx="50.2" cy="59.1" r="6.7"/>
        </g>
        <g>
          <path class="st0" d="M17.5,84.1l1.5,5.6c.4,1.3,1.6,2.2,2.9,2.2h13.2c2.1,0,3.8-1.7,3.8-3.8h0c0-2.1-1.7-3.8-3.8-3.8h-8.6l-2.5-10.8c-.8-3.3-3.7-5.6-7-5.6h-1.2c-3.3,0-6,2.7-6,6v17.9"/>
          <circle class="st0" cx="16.8" cy="61.3" r="6.8"/>
        </g>
        <g>
          <path class="st0" d="M82.8,84.1l-1.5,5.6c-.4,1.3-1.6,2.2-2.9,2.2h-13.2c-2.1,0-3.8-1.7-3.8-3.8h0c0-2.1,1.7-3.8,3.8-3.8h8.6l2.5-10.8c.8-3.3,3.7-5.6,7-5.6h1.2c3.3,0,6,2.7,6,6v17.9"/>
          <circle class="st0" cx="83.6" cy="61.3" r="6.8"/>
        </g>
        <line class="st0" x1="35.2" y1="92" x2="65.9" y2="92"/>
      </g>
      <g>
        <path class="st0" d="M46,16.9h-24.3c-1.7,0-3.1,1.4-3.1,3.1v14.9c0,1.7,1.4,3.1,3.1,3.1h1.3v3.3c0,.9,1,1.3,1.7.8l5-4.1h16.3c1.7,0,3.1-1.4,3.1-3.1v-14.9c0-1.7-1.4-3.1-3.1-3.1Z"/>
        <path class="st0" d="M38.9,11.9v-1c0-1.7,1.4-3.1,3.1-3.1h24.3c1.7,0,3.1,1.4,3.1,3.1v9.1"/>
        <path class="st0" d="M55.5,25.7h20.7c1.7,0,3.1,1.4,3.1,3.1v14.9c0,1.7-1.4,3.1-3.1,3.1h-1.3v3.3c0,.9-1,1.3-1.7.8l-5-4.1h-16.3c-1.7,0-3.1-1.4-3.1-3.1"/>
      </g>
    </g>
  </g>
  <g id="Layer_3" class="st2">
    <g>
      <g>
        <g>
          <path class="st0" d="M54.8,73.6h-8.1c-7,0-13,5.1-14.2,12l-.4,2.2c-.4,2.2,1.3,4.2,3.6,4.2h30c2.3,0,4-2,3.6-4.2l-.4-2.2c-1.2-6.9-7.1-12-14.2-12Z"/>
          <circle class="st0" cx="50.8" cy="65.2" r="8.4" transform="translate(-31.3 55) rotate(-45)"/>
        </g>
        <g>
          <path class="st0" d="M35.3,70.5c-1.9-.9-4-1.4-6.1-1.4h-8.1c-7,0-13,5.1-14.2,12l-.4,2.2c-.4,2.2,1.3,4.2,3.6,4.2h16"/>
          <circle class="st0" cx="25.2" cy="60.7" r="8.4" transform="translate(-35.6 35.6) rotate(-45)"/>
        </g>
        <g>
          <path class="st0" d="M75.4,87.6h16c2.3,0,4-2,3.6-4.2l-.4-2.2c-1.2-6.9-7.1-12-14.2-12h-8.1c-2.2,0-4.3.5-6.1,1.4"/>
          <circle class="st0" cx="76.4" cy="60.7" r="8.4" transform="translate(-.3 121.1) rotate(-76.7)"/>
        </g>
      </g>
      <g>
        <g>
          <path class="st0" d="M45.3,14.7v17.1c0,2.8-2.2,5-5,5h-17.1c-2.8,0-5-2.2-5-5V14.7c0-2.8,2.2-5,5-5h17.1"/>
          <polyline class="st0" points="25.7 22.7 30.2 27.3 38.1 19.4"/>
        </g>
        <g>
          <path class="st0" d="M83.5,14.7v17.1c0,2.8-2.2,5-5,5h-17.1c-2.8,0-5-2.2-5-5V14.7c0-2.8,2.2-5,5-5h17.1"/>
          <g>
            <line class="st0" x1="65.3" y1="18.7" x2="74.4" y2="27.8"/>
            <line class="st0" x1="74.4" y1="18.7" x2="65.3" y2="27.8"/>
          </g>
        </g>
      </g>
    </g>
  </g>
  <g id="Layer_4" class="st2">
    <g>
      <path class="st0" d="M64.7,81.1c1.3-.5,2.5-1.1,3.7-1.8,1-.5,2.1-.3,2.9.4l1.8,1.8c1.9,1.9,5.1,1.9,7,0l4.5-4.5c1.9-1.9,1.9-5.1,0-7l-1.8-1.8c-.8-.8-.9-2-.4-2.9,1.3-2.3,2.3-4.8,3-7.3.3-1,1.3-1.8,2.3-1.8h2.5c2.7,0,4.9-2.2,4.9-4.9v-6.4c0-2.7-2.2-4.9-4.9-4.9h-2.5c-1.1,0-2-.7-2.3-1.8-.7-2.6-1.8-5-3-7.3-.5-1-.3-2.1.4-2.9l1.8-1.8c1.9-1.9,1.9-5.1,0-7l-4.5-4.5c-1.9-1.9-5.1-1.9-7,0l-1.8,1.8c-.8.8-2,.9-2.9.4-2.3-1.3-4.8-2.3-7.3-3-1-.3-1.8-1.3-1.8-2.3v-2.5c0-2.7-2.2-4.9-4.9-4.9h-6.4c-2.7,0-4.9,2.2-4.9,4.9v2.5c0,1.1-.7,2-1.8,2.3-2.6.7-5,1.8-7.3,3-1,.5-2.1.3-2.9-.4l-1.8-1.8c-1.9-1.9-5.1-1.9-7,0l-4.5,4.5c-1.9,1.9-1.9,5.1,0,7l1.8,1.8c.8.8.9,2,.4,2.9-1.3,2.3-2.3,4.8-3,7.3-.3,1-1.3,1.8-2.3,1.8h-2.5c-2.7,0-4.9,2.2-4.9,4.9v6.4c0,2.7,2.2,4.9,4.9,4.9h2.5c1.1,0,2,.7,2.3,1.8.7,2.6,1.8,5,3,7.3.5,1,.3,2.1-.4,2.9l-1.8,1.8c-1.9,1.9-1.9,5.1,0,7l4.5,4.5c1.9,1.9,5.1,1.9,7,0l1.8-1.8c.8-.8,2-.9,2.9-.4,1.2.6,2.3,1.2,3.6,1.7"/>
      <g>
        <path class="st0" d="M62.5,34.4l-3.3-1.4v9.3l-8.1,4.7-8.1-4.7v-9.3l-3.3,1.4c-1.8.8-3.1,2.4-3.4,4.3l-1.3,7.2c-.4,2.3.6,4.7,2.6,6l5.7,3.7c1.7,1.1,2.7,2.9,2.7,4.8v32.7c0,1.7,1.4,3.1,3.1,3.1h4c1.7,0,3.1-1.4,3.1-3.1v-32.7c0-2,1-3.8,2.7-4.8l5.7-3.7c2-1.3,3-3.7,2.6-6l-1.3-7.2c-.4-1.9-1.6-3.5-3.4-4.3Z"/>
        <line class="st0" x1="52.4" y1="85.9" x2="56.2" y2="85.9"/>
      </g>
    </g>
  </g>
  <g id="Layer_5">
    <g>
      <g>
        <path class="st0" d="M78.6,26.3h8.2c2.1,0,3.8,1.7,3.8,3.8v41.2c0,2.1-1.7,3.8-3.8,3.8H14.1c-2.1,0-3.8-1.7-3.8-3.8V30.1c0-2.1,1.7-3.8,3.8-3.8h8.2"/>
        <rect class="st0" x="43.9" y="75.1" width="13.1" height="8"/>
        <line class="st0" x1="38.8" y1="83.1" x2="62.2" y2="83.1"/>
      </g>
      <g>
        <g>
          <circle class="st0" cx="50.5" cy="38.9" r="25.9"/>
          <ellipse class="st0" cx="50.5" cy="38.9" rx="10.2" ry="25.9"/>
          <path class="st0" d="M30.2,55c0-2.1,9.1-3.8,20.3-3.8s20.3,1.7,20.3,3.8"/>
          <path class="st0" d="M70.7,23c0,2.1-9.1,3.8-20.3,3.8s-20.3-1.7-20.3-3.8"/>
        </g>
        <line class="st0" x1="24.6" y1="38.9" x2="76.3" y2="38.9"/>
      </g>
    </g>
  </g>
</svg>