<?xml version="1.0" encoding="UTF-8"?>
<svg id="Layer_1" xmlns="http://www.w3.org/2000/svg" version="1.1" viewBox="0 0 100 100">
  <!-- Generator: Adobe Illustrator 29.2.0, SVG Export Plug-In . SVG Version: 2.1.0 Build 108)  -->
  <defs>
    <style>
      .st0 {
        fill: none;
        stroke: #fff;
        stroke-linecap: round;
        stroke-linejoin: round;
        stroke-width: 2px;
      }
    </style>
  </defs>
  <g>
    <g>
      <path class="st0" d="M54.1,69.5h-.2c0,0,0-.2,0-.2,1.3-5.1,4-9.7,7.7-13.4l25.2-25.2,4.8,4.8c.6.6.6,1.6,0,2.2l-24.1,24.1c-3.7,3.7-8.3,6.3-13.4,7.7Z"/>
      <path class="st0" d="M95,32.6l.7-.7c.4-.4.4-1,0-1.3l-2.8-2.8c-.4-.4-1-.4-1.3,0l-.7.7"/>
      <path class="st0" d="M87.3,31.2l-2.5-2.5c-1-1-2.6-1-3.5,0l-8,8"/>
      <line class="st0" x1="62.9" y1="55" x2="65.2" y2="57.3"/>
    </g>
    <path class="st0" d="M66.5,42V14.3H10v63.6c0,4.6,3.7,8.3,8.3,8.3h0c4.6,0,8.3-3.7,8.3-8.3v-2.9h56.5v2.9c0,4.6-3.7,8.3-8.3,8.3"/>
    <line class="st0" x1="18.3" y1="86.3" x2="74.9" y2="86.3"/>
  </g>
  <line class="st0" x1="19.9" y1="27.6" x2="45.9" y2="27.6"/>
  <line class="st0" x1="19.9" y1="38.2" x2="54.3" y2="38.2"/>
  <line class="st0" x1="19.9" y1="49.2" x2="51.2" y2="49.2"/>
</svg>